<svg width="30" height="25" viewBox="0 0 30 25" fill="none" xmlns="http://www.w3.org/2000/svg">
<path d="M4.5 6.25C4.5 4.5924 5.13214 3.00269 6.25736 1.83058C7.38258 0.65848 8.9087 0 10.5 0C12.0913 0 13.6174 0.65848 14.7426 1.83058C15.8679 3.00269 16.5 4.5924 16.5 6.25C16.5 7.9076 15.8679 9.49732 14.7426 10.6694C13.6174 11.8415 12.0913 12.5 10.5 12.5C8.9087 12.5 7.38258 11.8415 6.25736 10.6694C5.13214 9.49732 4.5 7.9076 4.5 6.25ZM0 23.5498C0 18.7402 3.74063 14.8438 8.35781 14.8438H12.6422C17.2594 14.8438 21 18.7402 21 23.5498C21 24.3506 20.3766 25 19.6078 25H1.39219C0.623438 25 0 24.3506 0 23.5498ZM23.625 15.2344V12.1094H20.625C20.0016 12.1094 19.5 11.5869 19.5 10.9375C19.5 10.2881 20.0016 9.76562 20.625 9.76562H23.625V6.64062C23.625 5.99121 24.1266 5.46875 24.75 5.46875C25.3734 5.46875 25.875 5.99121 25.875 6.64062V9.76562H28.875C29.4984 9.76562 30 10.2881 30 10.9375C30 11.5869 29.4984 12.1094 28.875 12.1094H25.875V15.2344C25.875 15.8838 25.3734 16.4062 24.75 16.4062C24.1266 16.4062 23.625 15.8838 23.625 15.2344Z" fill="black"/>
</svg>
