<svg width="30" height="25" viewBox="0 0 30 25" fill="none" xmlns="http://www.w3.org/2000/svg">
<g clip-path="url(#clip0_413_441)">
<path d="M7.8959 22.9297C7.57819 23.252 7.13548 23.4375 6.66673 23.4375C6.19798 23.4375 5.75527 23.252 5.43757 22.9297L0.854233 18.2422C0.234441 17.6074 0.276108 16.6162 0.958399 16.0352C1.64069 15.4541 2.69277 15.4932 3.31257 16.1328L5.00007 17.8564V3.125C5.00007 2.26074 5.74486 1.5625 6.66673 1.5625C7.58861 1.5625 8.3334 2.26074 8.3334 3.125V17.8564L10.0209 16.1279C10.6407 15.4932 11.698 15.4492 12.3751 16.0303C13.0522 16.6113 13.099 17.6025 12.4792 18.2373L7.8959 22.9248V22.9297ZM16.6667 23.4375C15.7449 23.4375 15.0001 22.7393 15.0001 21.875C15.0001 21.0107 15.7449 20.3125 16.6667 20.3125H18.3334C19.2553 20.3125 20.0001 21.0107 20.0001 21.875C20.0001 22.7393 19.2553 23.4375 18.3334 23.4375H16.6667ZM16.6667 17.1875C15.7449 17.1875 15.0001 16.4893 15.0001 15.625C15.0001 14.7607 15.7449 14.0625 16.6667 14.0625H21.6667C22.5886 14.0625 23.3334 14.7607 23.3334 15.625C23.3334 16.4893 22.5886 17.1875 21.6667 17.1875H16.6667ZM16.6667 10.9375C15.7449 10.9375 15.0001 10.2393 15.0001 9.375C15.0001 8.51074 15.7449 7.8125 16.6667 7.8125H25.0001C25.9219 7.8125 26.6667 8.51074 26.6667 9.375C26.6667 10.2393 25.9219 10.9375 25.0001 10.9375H16.6667ZM16.6667 4.6875C15.7449 4.6875 15.0001 3.98926 15.0001 3.125C15.0001 2.26074 15.7449 1.5625 16.6667 1.5625H28.3334C29.2553 1.5625 30.0001 2.26074 30.0001 3.125C30.0001 3.98926 29.2553 4.6875 28.3334 4.6875H16.6667Z" fill="#19526E"/>
</g>
<defs>
<clipPath id="clip0_413_441">
<rect width="30" height="25" fill="white"/>
</clipPath>
</defs>
</svg>
