<svg width="40" height="40" viewBox="0 0 40 40" fill="none" xmlns="http://www.w3.org/2000/svg">
<rect width="40" height="40" rx="12" fill="#F4E3B5"/>
<path d="M10 26.3603L14.0886 14.1397H16.3312L20.4198 26.3603H18.0046L17.1248 23.4797H13.295L12.4152 26.3603H10ZM13.9333 21.3848H16.4865L15.2099 17.1425L13.9333 21.3848Z" fill="black"/>
<path d="M21.1448 23.0782L22.9562 21.926C23.1402 22.6941 23.4335 23.2993 23.836 23.7416C24.25 24.1839 24.7561 24.405 25.3541 24.405C25.8372 24.405 26.2167 24.2828 26.4927 24.0384C26.7802 23.794 26.924 23.4332 26.924 22.956C26.924 22.6534 26.8262 22.3857 26.6307 22.1529C26.4467 21.9318 26.2224 21.7398 25.9579 21.5768C25.6934 21.4139 25.2564 21.1811 24.6468 20.8785L24.1465 20.6341C22.6284 19.8659 21.8693 18.7486 21.8693 17.2821C21.8693 16.3394 22.1799 15.5596 22.8009 14.9427C23.4335 14.3142 24.2443 14 25.2334 14C26.9125 14 28.0511 14.7391 28.6491 16.2172L26.8377 17.3869C26.5387 16.5256 26.0039 16.095 25.2334 16.095C24.8998 16.095 24.6123 16.2055 24.3708 16.4267C24.1293 16.6362 24.0085 16.898 24.0085 17.2123C24.0085 17.5265 24.112 17.8059 24.319 18.0503C24.5145 18.2714 24.7503 18.4576 25.0263 18.6089C25.3024 18.7602 25.7681 18.993 26.4237 19.3073C27.3438 19.7379 28.0223 20.2093 28.4594 20.7214C28.9079 21.2218 29.1437 21.9318 29.1667 22.8513C29.1667 23.9453 28.8044 24.8298 28.0798 25.5049C27.3668 26.1683 26.441 26.5 25.3024 26.5C24.2558 26.5 23.3472 26.1741 22.5766 25.5223C21.8176 24.8706 21.3403 24.0559 21.1448 23.0782Z" fill="black"/>
</svg>
