<svg width="40" height="40" viewBox="0 0 40 40" fill="none" xmlns="http://www.w3.org/2000/svg">
<rect width="40" height="40" rx="12" fill="#C0ECDF"/>
<path d="M10.0007 20.25C9.97826 18.3415 10.5107 16.817 11.5981 15.6765C12.6854 14.536 14.0081 13.9774 15.5663 14.0007C16.8442 14.0007 17.9035 14.3265 18.7442 14.9782C19.5962 15.6183 20.1623 16.526 20.4425 17.7014L18.4752 18.2251C17.9596 16.8053 16.9899 16.0954 15.5663 16.0954C14.5798 16.0954 13.7727 16.4562 13.145 17.1777C12.5285 17.8992 12.2202 18.9233 12.2202 20.25C12.2202 21.5767 12.5285 22.6008 13.145 23.3223C13.7727 24.0438 14.5798 24.4046 15.5663 24.4046C16.9899 24.4046 17.9596 23.6947 18.4752 22.2749L20.4425 22.7986C20.1623 23.974 19.5962 24.8875 18.7442 25.5392C17.9035 26.1793 16.8442 26.4993 15.5663 26.4993C14.0081 26.5226 12.6854 25.964 11.5981 24.8235C10.5107 23.683 9.97826 22.1585 10.0007 20.25Z" fill="black"/>
<path d="M24.5353 26.3597V16.2351H21.2564V14.1403H30V16.2351H26.7212V26.3597H24.5353Z" fill="black"/>
</svg>
