<svg width="20" height="22" viewBox="0 0 20 22" fill="none" xmlns="http://www.w3.org/2000/svg">
<path fill-rule="evenodd" clip-rule="evenodd" d="M13.9089 6.96227C13.9089 8.01293 13.497 9.02056 12.7637 9.76349C12.0304 10.5064 11.0358 10.9238 9.99878 10.9238C8.96174 10.9238 7.96719 10.5064 7.23389 9.76349C6.50058 9.02056 6.08862 8.01293 6.08862 6.96227C6.08862 5.91161 6.50058 4.90397 7.23389 4.16104C7.96719 3.41811 8.96174 3.00073 9.99878 3.00073C11.0358 3.00073 12.0304 3.41811 12.7637 4.16104C13.497 4.90397 13.9089 5.91161 13.9089 6.96227ZM14.0043 11.8318C14.9917 10.9977 15.7015 9.87571 16.0373 8.61841C16.373 7.3611 16.3181 6.02957 15.8803 4.80495C15.4425 3.58032 14.6429 2.52207 13.5905 1.77415C12.538 1.02624 11.2836 0.625 9.998 0.625C8.71242 0.625 7.45804 1.02624 6.40553 1.77415C5.35303 2.52207 4.55348 3.58032 4.1157 4.80495C3.6779 6.02957 3.6231 7.3611 3.95876 8.61841C4.29443 9.87571 5.00424 10.9977 5.99165 11.8318C4.45197 12.5693 3.13923 13.7171 2.19395 15.1524C1.24868 16.5877 0.706467 18.2563 0.625355 19.9799C0.617816 20.2905 0.730585 20.5917 0.939544 20.8189C1.14849 21.0463 1.43699 21.1818 1.7433 21.1962C2.04959 21.2108 2.34931 21.1032 2.57827 20.8966C2.80724 20.6899 2.94725 20.4008 2.96832 20.0908C3.05359 18.2598 3.83153 16.5324 5.14066 15.2672C6.44978 14.002 8.18953 13.2961 9.99878 13.2961C11.808 13.2961 13.5478 14.002 14.8569 15.2672C16.166 16.5324 16.944 18.2598 17.0292 20.0908C17.0331 20.2491 17.068 20.4049 17.1322 20.5492C17.1963 20.6936 17.2882 20.8235 17.4026 20.9313C17.5169 21.0392 17.6514 21.1229 17.798 21.1774C17.9447 21.2319 18.1006 21.2561 18.2567 21.2487C18.4128 21.2414 18.5658 21.2024 18.7069 21.1343C18.8478 21.0661 18.974 20.9703 19.0778 20.8521C19.1819 20.7338 19.2613 20.5958 19.3118 20.4461C19.3625 20.2963 19.383 20.1377 19.3722 19.9799C19.2909 18.2561 18.7485 16.5874 17.803 15.152C16.8573 13.7168 15.5443 12.5691 14.0043 11.8318Z" fill="white"/>
</svg>
