<svg width="25" height="30" viewBox="0 0 25 30" fill="none" xmlns="http://www.w3.org/2000/svg">
<g clip-path="url(#clip0_413_395)">
<path d="M7.14286 0C8.13058 0 8.92857 0.837891 8.92857 1.875V3.75H16.0714V1.875C16.0714 0.837891 16.8694 0 17.8571 0C18.8449 0 19.6429 0.837891 19.6429 1.875V3.75H22.3214C23.8002 3.75 25 5.00977 25 6.5625V9.375H0V6.5625C0 5.00977 1.19978 3.75 2.67857 3.75H5.35714V1.875C5.35714 0.837891 6.15513 0 7.14286 0ZM0 11.25H25V27.1875C25 28.7402 23.8002 30 22.3214 30H2.67857C1.19978 30 0 28.7402 0 27.1875V11.25ZM18.3594 17.8711C18.8839 17.3203 18.8839 16.4297 18.3594 15.8848C17.8348 15.3398 16.9866 15.334 16.4676 15.8848L11.1663 21.4512L8.54353 18.6973C8.01897 18.1465 7.17076 18.1465 6.65179 18.6973C6.13281 19.248 6.12723 20.1387 6.65179 20.6836L10.2232 24.4336C10.7478 24.9844 11.596 24.9844 12.115 24.4336L18.3594 17.8711Z" fill="white"/>
</g>
<defs>
<clipPath id="clip0_413_395">
<rect width="25" height="30" fill="white"/>
</clipPath>
</defs>
</svg>
