<svg width="25" height="30" viewBox="0 0 25 30" fill="none" xmlns="http://www.w3.org/2000/svg">
<g clip-path="url(#clip0_413_393)">
<path d="M5.35714 1.875V3.75H2.67857C1.19978 3.75 0 5.00977 0 6.5625V9.375H25V6.5625C25 5.00977 23.8002 3.75 22.3214 3.75H19.6429V1.875C19.6429 0.837891 18.8449 0 17.8571 0C16.8694 0 16.0714 0.837891 16.0714 1.875V3.75H8.92857V1.875C8.92857 0.837891 8.13058 0 7.14286 0C6.15513 0 5.35714 0.837891 5.35714 1.875ZM25 11.25H0V27.1875C0 28.7402 1.19978 30 2.67857 30H22.3214C23.8002 30 25 28.7402 25 27.1875V11.25ZM12.5 14.5312C13.2422 14.5312 13.8393 15.1582 13.8393 15.9375V19.2188H16.9643C17.7065 19.2188 18.3036 19.8457 18.3036 20.625C18.3036 21.4043 17.7065 22.0312 16.9643 22.0312H13.8393V25.3125C13.8393 26.0918 13.2422 26.7188 12.5 26.7188C11.7578 26.7188 11.1607 26.0918 11.1607 25.3125V22.0312H8.03571C7.29353 22.0312 6.69643 21.4043 6.69643 20.625C6.69643 19.8457 7.29353 19.2188 8.03571 19.2188H11.1607V15.9375C11.1607 15.1582 11.7578 14.5312 12.5 14.5312Z" fill="white"/>
</g>
<defs>
<clipPath id="clip0_413_393">
<rect width="25" height="30" fill="white"/>
</clipPath>
</defs>
</svg>
