<svg width="25" height="25" viewBox="0 0 25 25" fill="none" xmlns="http://www.w3.org/2000/svg">
<path d="M8.92857 3.90625C8.92857 2.6123 10.1283 1.5625 11.6071 1.5625H13.3929C14.8717 1.5625 16.0714 2.6123 16.0714 3.90625V21.0938C16.0714 22.3877 14.8717 23.4375 13.3929 23.4375H11.6071C10.1283 23.4375 8.92857 22.3877 8.92857 21.0938V3.90625ZM0 13.2812C0 11.9873 1.19978 10.9375 2.67857 10.9375H4.46429C5.94308 10.9375 7.14286 11.9873 7.14286 13.2812V21.0938C7.14286 22.3877 5.94308 23.4375 4.46429 23.4375H2.67857C1.19978 23.4375 0 22.3877 0 21.0938V13.2812ZM20.5357 4.6875H22.3214C23.8002 4.6875 25 5.7373 25 7.03125V21.0938C25 22.3877 23.8002 23.4375 22.3214 23.4375H20.5357C19.0569 23.4375 17.8571 22.3877 17.8571 21.0938V7.03125C17.8571 5.7373 19.0569 4.6875 20.5357 4.6875Z" fill="white"/>
</svg>
