<svg width="25" height="28" viewBox="0 0 25 28" fill="none" xmlns="http://www.w3.org/2000/svg">
<path d="M3.57143 3.6875C3.08036 3.6875 2.67857 4.10938 2.67857 4.625V23.375C2.67857 23.8906 3.08036 24.3125 3.57143 24.3125H21.4286C21.9196 24.3125 22.3214 23.8906 22.3214 23.375V4.625C22.3214 4.10938 21.9196 3.6875 21.4286 3.6875H3.57143ZM0 4.625C0 2.55664 1.60156 0.875 3.57143 0.875H21.4286C23.3984 0.875 25 2.55664 25 4.625V23.375C25 25.4434 23.3984 27.125 21.4286 27.125H3.57143C1.60156 27.125 0 25.4434 0 23.375V4.625ZM18.8058 11.2461L11.6629 18.7461C11.1384 19.2969 10.2902 19.2969 9.77121 18.7461L6.19978 14.9961C5.67522 14.4453 5.67522 13.5547 6.19978 13.0098C6.72433 12.4648 7.57254 12.459 8.09152 13.0098L10.7143 15.7637L16.9085 9.25391C17.433 8.70312 18.2812 8.70312 18.8002 9.25391C19.3192 9.80469 19.3248 10.6953 18.8002 11.2402L18.8058 11.2461Z" fill="#489F6B"/>
</svg>
