<svg width="21" height="5" viewBox="0 0 21 5" fill="none" xmlns="http://www.w3.org/2000/svg">
<path d="M2.24094 4.17045C1.71538 4.17045 1.26438 3.98224 0.887962 3.60582C0.511541 3.2294 0.323331 2.77841 0.323331 2.25284C0.323331 1.72727 0.511541 1.27628 0.887962 0.899858C1.26438 0.523437 1.71538 0.335227 2.24094 0.335227C2.76651 0.335227 3.21751 0.523437 3.59393 0.899858C3.97035 1.27628 4.15856 1.72727 4.15856 2.25284C4.15856 2.60085 4.06978 2.92045 3.89222 3.21165C3.72177 3.50284 3.49094 3.73722 3.19975 3.91477C2.91566 4.08523 2.59606 4.17045 2.24094 4.17045ZM10.5027 4.17045C9.9771 4.17045 9.5261 3.98224 9.14968 3.60582C8.77326 3.2294 8.58505 2.77841 8.58505 2.25284C8.58505 1.72727 8.77326 1.27628 9.14968 0.899858C9.5261 0.523437 9.9771 0.335227 10.5027 0.335227C11.0282 0.335227 11.4792 0.523437 11.8556 0.899858C12.2321 1.27628 12.4203 1.72727 12.4203 2.25284C12.4203 2.60085 12.3315 2.92045 12.1539 3.21165C11.9835 3.50284 11.7527 3.73722 11.4615 3.91477C11.1774 4.08523 10.8578 4.17045 10.5027 4.17045ZM18.7644 4.17045C18.2388 4.17045 17.7878 3.98224 17.4114 3.60582C17.035 3.2294 16.8468 2.77841 16.8468 2.25284C16.8468 1.72727 17.035 1.27628 17.4114 0.899858C17.7878 0.523437 18.2388 0.335227 18.7644 0.335227C19.29 0.335227 19.7409 0.523437 20.1174 0.899858C20.4938 1.27628 20.682 1.72727 20.682 2.25284C20.682 2.60085 20.5932 2.92045 20.4157 3.21165C20.2452 3.50284 20.0144 3.73722 19.7232 3.91477C19.4391 4.08523 19.1195 4.17045 18.7644 4.17045Z" fill="black"/>
</svg>
