<svg width="30" height="19" viewBox="0 0 30 19" fill="none" xmlns="http://www.w3.org/2000/svg">
<path d="M3.33333 0.125C1.49479 0.125 0 1.52637 0 3.25V6.375C0 6.80469 0.385417 7.1416 0.817708 7.2832C1.79687 7.60059 2.5 8.47461 2.5 9.5C2.5 10.5254 1.79687 11.3994 0.817708 11.7168C0.385417 11.8584 0 12.1953 0 12.625V15.75C0 17.4736 1.49479 18.875 3.33333 18.875H26.6667C28.5052 18.875 30 17.4736 30 15.75V12.625C30 12.1953 29.6146 11.8584 29.1823 11.7168C28.2031 11.3994 27.5 10.5254 27.5 9.5C27.5 8.47461 28.2031 7.60059 29.1823 7.2832C29.6146 7.1416 30 6.80469 30 6.375V3.25C30 1.52637 28.5052 0.125 26.6667 0.125H3.33333ZM6.66667 5.59375V13.4062C6.66667 13.8359 7.04167 14.1875 7.5 14.1875H22.5C22.9583 14.1875 23.3333 13.8359 23.3333 13.4062V5.59375C23.3333 5.16406 22.9583 4.8125 22.5 4.8125H7.5C7.04167 4.8125 6.66667 5.16406 6.66667 5.59375ZM5 4.8125C5 3.94824 5.74479 3.25 6.66667 3.25H23.3333C24.2552 3.25 25 3.94824 25 4.8125V14.1875C25 15.0518 24.2552 15.75 23.3333 15.75H6.66667C5.74479 15.75 5 15.0518 5 14.1875V4.8125Z" fill="#6F7482"/>
</svg>