<svg width="20" height="16" viewBox="0 0 20 16" fill="none" xmlns="http://www.w3.org/2000/svg">
<path fill-rule="evenodd" clip-rule="evenodd" d="M0.625 2C0.625 1.17158 1.36571 0.5 2.27941 0.5H17.7206C18.6343 0.5 19.375 1.17158 19.375 2C19.375 2.82842 18.6343 3.5 17.7206 3.5H2.27941C1.36571 3.5 0.625 2.82842 0.625 2ZM2.27941 6.5C1.36571 6.5 0.625 7.17158 0.625 8C0.625 8.82842 1.36571 9.5 2.27941 9.5H11.1029C12.0166 9.5 12.7574 8.82842 12.7574 8C12.7574 7.17158 12.0166 6.5 11.1029 6.5H2.27941Z" fill="white"/>
<path d="M2.27941 12.5C1.36571 12.5 0.625 13.1716 0.625 14C0.625 14.8284 1.36571 15.5 2.27941 15.5H17.7206C18.6343 15.5 19.375 14.8284 19.375 14C19.375 13.1716 18.6343 12.5 17.7206 12.5H2.27941Z" fill="white"/>
</svg>
